# xmcd CD database file
#
# Track frame offsets:
#	150
#	14470
#	27227
#	39160
#	52620
#	63932
#	76737
#	89605
#	102407
#	114497
#	124865
#	138422
#	148480
#	157697
#	168580
#	178337
#	191235
#	202047
#	217490
#	230332
#
# Disc length: 3252 seconds
#
# Revision: 0
# Processed by: cddbd v1.5.2PL0 Copyright (c) Steve Scherf et al.
# Submitted via: CDex 1.70beta2
#
DISCID=200cb214
DTITLE=Blue, Arkey - The Best of Arkey Blue
DYEAR=1900
DGENRE=Country
TTITLE0=Her Only Bad Habit
TTITLE1=Back Streets of Bandera
TTITLE2=The Worst of You, Just Got the Best of Me
TTITLE3=Bandera Fever
TTITLE4=Somewhere Between Haggard and Jones
TTITLE5=Dude Ranch Love Affair
TTITLE6=Gabe's Horn
TTITLE7=Bandera's Mr. Blue
TTITLE8=Misty Hours of Daylight
TTITLE9=Bandera Love Affair
TTITLE10=One Golden Oldie
TTITLE11=Too Many Heartaches, Too Many Tears
TTITLE12=The Bandera Queen
TTITLE13=I Stepped Aside
TTITLE14=Texas Hills
TTITLE15=Wishing Away My Mind
TTITLE16=Texas Dance Hall Dandy
TTITLE17=Rosie's
TTITLE18=All My Babies Are Coming In Tonight
TTITLE19=Mona
EXTD=
EXTT0=
EXTT1=
EXTT2=
EXTT3=
EXTT4=
EXTT5=
EXTT6=
EXTT7=
EXTT8=
EXTT9=
EXTT10=
EXTT11=
EXTT12=
EXTT13=
EXTT14=
EXTT15=
EXTT16=
EXTT17=
EXTT18=
EXTT19=
PLAYORDER=
